<svg width="131" height="32" viewBox="0 0 131 32" fill="none" xmlns="http://www.w3.org/2000/svg">
    <path fill-rule="evenodd" clip-rule="evenodd" d="M122.337 19.8624C122.046 19.8624 121.645 19.9746 121.464 20.2728C120.773 21.4672 119.572 22.2503 118.263 22.2503C116.044 22.2503 114.479 20.1606 114.479 17.9218C114.479 15.683 116.044 13.5932 118.263 13.5932C119.572 13.5932 120.773 14.3764 121.464 15.5708C121.645 15.8697 122.046 15.9812 122.337 15.9812C122.992 15.9812 123.501 15.4585 123.501 14.7868C123.501 14.265 123.101 13.5932 122.664 13.2197C121.501 11.9885 119.972 11.2422 118.263 11.2422C114.698 11.2422 112.188 14.4886 112.188 17.9218C112.188 20.9726 114.175 23.8615 117.116 24.4715V25.9368C117.116 26.6086 117.626 27.0935 118.245 27.0935C118.9 27.0935 119.408 26.6086 119.408 25.9368V24.4771C120.653 24.2222 121.767 23.5722 122.664 22.6239C123.101 22.2503 123.501 21.5794 123.501 21.056C123.501 20.3843 122.992 19.8624 122.337 19.8624ZM74.078 28.2253H73.5435V31.9687H75.8009V31.4349H74.078V28.2253ZM72.3762 30.8866H72.366L70.7649 28.2253H70.261V31.9687H70.7954V29.3075H70.8056L72.4043 31.9687H72.9106V28.2253H72.3762V30.8866ZM69.1256 31.9687H69.6609V28.2253H69.1256V31.9687ZM69.1256 27.968H69.6609V27.4037H69.1256V27.968ZM66.4486 28.7279H68.0379L66.4353 31.499V31.9687H68.6927V31.4349H67.0339L68.6927 28.6518V28.2253H66.4486V28.7279ZM65.4906 31.9687H66.0259V28.2253H65.4906V31.9687ZM65.4906 27.968H66.0259V27.4037H65.4906V27.968ZM64.0677 29.8325C63.8997 29.8109 63.7669 29.7916 63.67 29.774C63.4958 29.7395 63.3692 29.6778 63.2895 29.5888C63.2106 29.5007 63.1707 29.4037 63.1707 29.2963C63.1738 29.1159 63.2332 28.9804 63.3481 28.8899C63.4575 28.8025 63.595 28.7592 63.7606 28.7592C64.0787 28.7656 64.3709 28.8618 64.6358 29.047L64.9343 28.5804C64.61 28.3328 64.2279 28.2045 63.7888 28.1949C63.4239 28.1973 63.1418 28.2983 62.9433 28.4971C62.7386 28.6975 62.6355 28.962 62.6355 29.289C62.6355 29.5616 62.7175 29.7924 62.8808 29.9824C63.0387 30.1676 63.2699 30.287 63.5739 30.3399C63.7442 30.3664 63.8997 30.3888 64.0419 30.4089C64.3521 30.4666 64.5061 30.6341 64.503 30.9131C64.4967 31.2537 64.2631 31.4285 63.8036 31.4349C63.4161 31.4317 63.0808 31.3066 62.7995 31.0621L62.4479 31.4886C62.8246 31.8293 63.2746 32 63.7982 32C64.6069 31.9896 65.0202 31.6257 65.0382 30.9098C65.0382 30.6437 64.9593 30.4113 64.803 30.2109C64.6444 30.0065 64.3998 29.8806 64.0677 29.8325ZM57.6088 30.1171C57.6088 29.7916 57.601 29.5584 57.587 29.4173C57.5674 29.277 57.5213 29.1632 57.4487 29.075C57.2994 28.8578 57.0892 28.752 56.8173 28.7592H56.1766V31.4349H56.8173C57.1181 31.4349 57.3369 31.3259 57.4729 31.1078C57.5323 31.0277 57.5706 30.9251 57.587 30.8016C57.601 30.6798 57.6088 30.4521 57.6088 30.1171ZM58.1175 29.2979C58.1347 29.4526 58.1441 29.7187 58.1441 30.097C58.1441 30.4994 58.13 30.78 58.1027 30.9387C58.0894 31.0197 58.0699 31.0918 58.0449 31.1543C58.0175 31.2161 57.9839 31.2802 57.9448 31.3475C57.8417 31.5239 57.6979 31.6689 57.5135 31.7836C57.3307 31.9062 57.1072 31.9687 56.8415 31.9687H55.6413V28.2253H56.8782C57.3565 28.2286 57.7159 28.4386 57.955 28.857C58.0402 28.9973 58.0949 29.144 58.1175 29.2979ZM54.0075 29.8654C54.2091 29.863 54.3591 29.8005 54.4599 29.6802C54.5591 29.5688 54.6083 29.4317 54.6083 29.2682C54.6052 29.0726 54.5458 28.9307 54.431 28.8434C54.3403 28.7664 54.209 28.7279 54.0371 28.7279H53.1964V29.8654H54.0075ZM54.431 30.3071L55.2491 31.9687H54.613L53.8817 30.368H53.1964V31.9687H52.6611V28.2253H54.0418C54.3364 28.2253 54.5771 28.3071 54.7631 28.4714C54.9865 28.6582 55.1037 28.9243 55.1131 29.2698C55.1069 29.778 54.8795 30.1243 54.431 30.3071ZM49.9826 31.9687H52.2408V31.4349H50.5178V30.3327H51.9884V29.8301H50.5178V28.7592H52.2408V28.2253H49.9826V31.9687ZM48.3503 29.8862L47.6009 28.2253H47.0336L48.0971 30.4289V31.9687H48.6026V30.4281L49.6669 28.2253H49.0996L48.3503 29.8862ZM44.7606 29.8654C44.9614 29.863 45.1114 29.8005 45.2122 29.6802C45.3115 29.5688 45.3607 29.4317 45.3607 29.2682C45.3576 29.0726 45.2982 28.9307 45.1833 28.8434C45.0927 28.7664 44.9614 28.7279 44.7895 28.7279H43.9487V29.8654H44.7606ZM45.1833 30.3071L46.0014 31.9687H45.3654L44.634 30.368H43.9487V31.9687H43.4135V28.2253H44.795C45.0888 28.2253 45.3294 28.3071 45.5154 28.4714C45.7397 28.6582 45.8561 28.9243 45.8655 29.2698C45.8592 29.778 45.6318 30.1243 45.1833 30.3071ZM78.0623 30.4425H76.6151V30.6389C76.6183 30.8738 76.6878 31.0646 76.8245 31.208C76.9605 31.3595 77.1324 31.4349 77.341 31.4349C77.4676 31.4349 77.5762 31.406 77.6669 31.3499C77.7591 31.3018 77.8333 31.2385 77.8904 31.1623C77.9599 31.0814 78.006 30.9756 78.0287 30.8449C78.0451 30.7616 78.0568 30.6269 78.0623 30.4425ZM78.5662 29.2241C78.5905 29.3708 78.6022 29.6626 78.6022 30.097C78.6022 30.5251 78.5905 30.8137 78.5662 30.9652C78.5537 31.0453 78.5366 31.1118 78.5178 31.1655C78.4975 31.216 78.4733 31.2698 78.4475 31.3267C78.3623 31.4998 78.2248 31.6521 78.0357 31.7836C77.8497 31.9206 77.6184 31.9928 77.3403 32C76.98 31.9928 76.6808 31.8637 76.444 31.612C76.208 31.3595 76.0869 31.0453 76.0799 30.671V29.9095H78.0662C78.0623 29.6417 78.0498 29.4526 78.0287 29.3428C78.006 29.2161 77.9599 29.1119 77.8904 29.0309C77.8341 28.9548 77.7591 28.8907 77.6669 28.8386C77.577 28.7889 77.4684 28.7624 77.3418 28.7592C77.1699 28.7624 77.0254 28.8145 76.905 28.9163C76.7902 29.0229 76.7105 29.152 76.6675 29.3027H76.0994C76.1557 28.9901 76.2916 28.7279 76.5065 28.5147C76.7214 28.3047 76.9996 28.1973 77.3403 28.1949C77.6184 28.1973 77.8497 28.2678 78.0357 28.4041C78.2248 28.5396 78.3623 28.6943 78.4475 28.8666C78.5006 28.958 78.5405 29.0766 78.5662 29.2241ZM60.55 30.4425H59.1028V30.6389C59.106 30.8738 59.1755 31.0646 59.3115 31.208C59.4482 31.3595 59.6201 31.4349 59.8287 31.4349C59.9553 31.4349 60.0639 31.406 60.1538 31.3499C60.2468 31.3018 60.321 31.2385 60.3781 31.1623C60.4468 31.0814 60.4937 30.9756 60.5164 30.8449C60.5328 30.7616 60.5437 30.6269 60.55 30.4425ZM61.0539 29.2241C61.0782 29.3708 61.0899 29.6626 61.0899 30.097C61.0899 30.5251 61.0782 30.8137 61.0539 30.9652C61.0407 31.0453 61.025 31.1118 61.0055 31.1655C60.9844 31.216 60.961 31.2698 60.9352 31.3267C60.8492 31.4998 60.7125 31.6521 60.5234 31.7836C60.3374 31.9206 60.1054 31.9928 59.8272 32C59.4677 31.9928 59.1685 31.8637 58.9317 31.612C58.6957 31.3595 58.5738 31.0453 58.5676 30.671V29.9095H60.5539C60.55 29.6417 60.5375 29.4526 60.5164 29.3428C60.4937 29.2161 60.4476 29.1119 60.3781 29.0309C60.321 28.9548 60.2468 28.8907 60.1546 28.8386C60.0639 28.7889 59.9561 28.7624 59.8295 28.7592C59.6584 28.7624 59.5123 28.8145 59.3927 28.9163C59.2779 29.0229 59.1982 29.152 59.1552 29.3027H58.5871C58.6434 28.9901 58.7793 28.7279 58.9942 28.5147C59.2091 28.3047 59.4865 28.1973 59.8272 28.1949C60.1054 28.1973 60.3374 28.2678 60.5234 28.4041C60.7125 28.5396 60.8492 28.6943 60.9352 28.8666C60.9883 28.958 61.0282 29.0766 61.0539 29.2241ZM42.3563 30.4425H40.9092V30.6389C40.9123 30.8738 40.9818 31.0646 41.1178 31.208C41.2538 31.3595 41.4264 31.4349 41.6351 31.4349C41.7617 31.4349 41.8703 31.406 41.9601 31.3499C42.0523 31.3018 42.1273 31.2385 42.1836 31.1623C42.2531 31.0814 42.3 30.9756 42.3227 30.8449C42.3391 30.7616 42.35 30.6269 42.3563 30.4425ZM42.8603 29.2241C42.8845 29.3708 42.8962 29.6626 42.8962 30.097C42.8962 30.5251 42.8845 30.8137 42.8603 30.9652C42.847 31.0453 42.8314 31.1118 42.8118 31.1655C42.7907 31.216 42.7673 31.2698 42.7415 31.3267C42.6556 31.4998 42.5188 31.6521 42.3289 31.7836C42.1438 31.9206 41.9117 31.9928 41.6335 32C41.2733 31.9928 40.9748 31.8637 40.7373 31.612C40.5021 31.3595 40.3802 31.0453 40.3739 30.671V29.9095H42.3594C42.3563 29.6417 42.3438 29.4526 42.3227 29.3428C42.3 29.2161 42.2539 29.1119 42.1836 29.0309C42.1273 28.9548 42.0531 28.8907 41.9609 28.8386C41.8703 28.7889 41.7617 28.7624 41.6359 28.7592C41.464 28.7624 41.3186 28.8145 41.1991 28.9163C41.0842 29.0229 41.0045 29.152 40.9608 29.3027H40.3935C40.4497 28.9901 40.5857 28.7279 40.8006 28.5147C41.0154 28.3047 41.2928 28.1973 41.6335 28.1949C41.9117 28.1973 42.1438 28.2678 42.3289 28.4041C42.5188 28.5396 42.6556 28.6943 42.7415 28.8666C42.7947 28.958 42.8337 29.0766 42.8603 29.2241ZM39.3058 29.8301H37.9032V28.2253H37.3687V31.9687H37.9032V30.3327H39.3058V31.9687H39.841V28.2253H39.3058V29.8301ZM129.862 13.8065C130.491 13.8065 131 13.2838 131 12.6402C131 11.9957 130.491 11.4731 129.862 11.4731H128.3V8.31883C128.3 7.67436 127.79 7.15253 127.163 7.15253C126.534 7.15253 126.025 7.67436 126.025 8.31883V20.3835C126.025 22.2632 127.116 23.9513 128.803 24.6831C128.948 24.7457 129.097 24.7753 129.246 24.7753C129.689 24.7753 130.11 24.5076 130.294 24.0627C130.538 23.4696 130.267 22.785 129.689 22.5341C128.845 22.1678 128.3 21.3229 128.3 20.3835V13.8065H129.862ZM108.533 17.8841C108.533 15.683 107.005 13.5932 104.75 13.5932C102.53 13.5932 100.93 15.683 100.93 17.8841C100.93 20.1606 102.53 22.2503 104.75 22.2503C107.005 22.2503 108.533 20.1606 108.533 17.8841ZM110.861 17.8841C110.861 21.3918 108.315 24.6014 104.75 24.6014C101.185 24.6014 98.6384 21.3918 98.6384 17.8841C98.6384 14.4517 101.185 11.2045 104.75 11.2045C108.315 11.2045 110.861 14.4517 110.861 17.8841ZM95.0206 17.9218C95.0206 15.683 93.4195 13.5932 91.2004 13.5932C88.9453 13.5932 87.381 15.683 87.381 17.9218C87.381 20.1983 88.9453 22.2872 91.2004 22.2872C93.4195 22.2872 95.0206 20.1983 95.0206 17.9218ZM97.3123 17.9218C97.3123 21.3918 94.7658 24.6391 91.2004 24.6391C89.6728 24.6391 88.2546 23.9673 87.1622 22.9966V29.8261C87.1622 30.4978 86.6535 30.9828 85.9987 30.9828C85.3799 30.9828 84.8712 30.4978 84.8712 29.8261V12.6225C84.8712 12.0254 85.3799 11.429 85.9987 11.429C86.6535 11.429 87.1622 12.0254 87.1622 12.6225V12.8838C88.2179 11.9508 89.7455 11.2422 91.2004 11.2422C94.7658 11.2422 97.3123 14.4886 97.3123 17.9218ZM81.9723 11.4658C80.7713 11.4658 79.607 12.063 78.6975 12.8838V12.6602C78.6975 11.9885 78.1888 11.4658 77.534 11.4658C76.9152 11.4658 76.4065 11.9885 76.4065 12.6602V23.1834C76.4065 23.8551 76.9152 24.3777 77.534 24.3777C78.1888 24.3777 78.6975 23.8551 78.6975 23.1834V18.5558C78.6975 16.317 80.0071 14.3018 82.1168 13.8169C82.7357 13.7423 83.1358 13.3319 83.1358 12.6225C83.1358 11.9131 82.481 11.4658 81.9723 11.4658ZM64.7983 19.1154C65.2343 20.8323 66.6166 22.2872 68.4364 22.2872C70.2188 22.2872 71.6002 20.8323 72.0738 19.1154H64.7983ZM62.3245 17.9587C62.3245 17.2869 62.8707 16.7651 63.4887 16.7651H72.0738C71.637 14.9736 70.2547 13.5932 68.4364 13.5932C67.2042 13.5932 66.2204 14.0149 65.4586 14.8822C65.3984 14.9495 64.5522 15.4994 63.9302 14.7571C63.327 14.0365 63.7005 13.3536 63.813 13.2229C64.9601 11.8875 66.7111 11.2422 68.4364 11.2422C72.0011 11.2422 74.5476 14.4886 74.5476 17.9587C74.5476 21.3918 72.0011 24.6391 68.4364 24.6391C64.871 24.6391 62.3245 21.3918 62.3245 17.9587ZM51.7352 24.0796H59.4834C60.1382 24.0796 60.6476 23.4824 60.6476 22.9221C60.6476 22.2503 60.1382 21.7277 59.4834 21.7277H54.1723L60.7203 13.7423C60.8664 13.5932 61.0117 13.2943 61.0117 12.9961C61.0117 12.3989 60.4296 11.8394 59.8842 11.8394H52.0626C51.4805 11.8394 50.8983 12.3989 50.8983 12.9961C50.8983 13.6678 51.4805 14.1528 52.0626 14.1528H57.3736L50.8624 22.1389C50.6803 22.3626 50.5709 22.6239 50.5709 22.9221C50.5709 23.4824 51.0804 24.0796 51.7352 24.0796ZM45.9585 17.9218C45.9585 15.683 44.4309 13.5932 42.1758 13.5932C39.9567 13.5932 38.3556 15.683 38.3556 17.9218C38.3556 20.1983 39.9567 22.2872 42.1758 22.2872C44.4309 22.2872 45.9585 20.1983 45.9585 17.9218ZM47.3407 24.3401C46.7226 24.3401 46.214 23.8182 46.214 23.1465V22.9966C45.1224 23.9673 43.6667 24.6391 42.1758 24.6391C38.6111 24.6391 36.0646 21.3918 36.0646 17.9218C36.0646 14.4886 38.6111 11.2422 42.1758 11.2422C43.6667 11.2422 45.1224 11.8763 46.214 12.8838V12.6225C46.214 12.0254 46.7226 11.429 47.3407 11.429C47.9955 11.429 48.505 12.0254 48.505 12.6225V23.1465C48.505 23.8182 47.9955 24.3401 47.3407 24.3401ZM35.1621 0.407205C35.6911 0.950678 35.6911 1.83402 35.1621 2.3775L19.5384 18.4052L25.6801 24.7048C26.2091 25.2483 26.2091 26.1308 25.6801 26.6743C25.4238 26.9372 25.0831 27.0823 24.7198 27.0823C24.3572 27.0823 24.0157 26.9372 23.7594 26.6743L17.6186 20.3746L15.2377 22.8171L12.8568 20.3746L6.71596 26.6743C6.45889 26.9372 6.11821 27.0823 5.75565 27.0823C5.39231 27.0823 5.05163 26.9372 4.79533 26.6743C4.26634 26.1308 4.26634 25.2483 4.79533 24.7048L10.937 18.4052L4.79533 12.1047C4.26634 11.562 4.26634 10.6779 4.79533 10.1352C5.05241 9.8723 5.39309 9.72721 5.75565 9.72721C6.11821 9.72721 6.45967 9.8723 6.71596 10.1352L15.2377 18.8773L26.0481 7.78738H2.76296V29.0293H27.7124V13.6486C27.7124 13.6486 29.8292 11.4763 29.9909 11.3111C30.1527 11.1452 30.4754 11.0971 30.4754 11.5163V31.8637H0V4.95218H28.8118L33.2423 0.407205C33.4986 0.144286 33.8392 0 34.2018 0C34.5644 0 34.9058 0.144286 35.1621 0.407205Z" fill="#034C7D"/>
</svg>
