<svg width="53" height="52" viewBox="0 0 53 52" fill="none" xmlns="http://www.w3.org/2000/svg">
<path d="M8.69561 51C12.8978 51 16.3043 47.5935 16.3043 43.3913C16.3043 39.1891 12.8978 35.7826 8.69561 35.7826C4.49344 35.7826 1.08691 39.1891 1.08691 43.3913C1.08691 47.5935 4.49344 51 8.69561 51Z" stroke="white" stroke-width="2" stroke-miterlimit="10" stroke-linejoin="round"/>
<path d="M6.52174 35.7826V6.43478C6.52174 3.43478 4.08696 1 1.08696 1H0" stroke="white" stroke-width="2" stroke-miterlimit="10" stroke-linejoin="round"/>
<path d="M16.3042 45.5653H51.0868L47.8259 51.0001" stroke="white" stroke-width="2" stroke-miterlimit="10" stroke-linejoin="round"/>
<path d="M7.60889 43.3911H9.7828" stroke="white" stroke-width="2" stroke-miterlimit="10" stroke-linejoin="round"/>
<path d="M31.5216 10.7828H16.3042V21.6524L23.9129 18.3915L31.5216 21.6524V10.7828Z" stroke="white" stroke-width="2" stroke-miterlimit="10" stroke-linejoin="round"/>
<path d="M15.7285 45.5654H41.3046V10.7828H6.52197V36.359" stroke="white" stroke-width="2" stroke-miterlimit="10" stroke-linejoin="round"/>
<path d="M26.0869 41.2173H33.6956" stroke="white" stroke-width="2" stroke-miterlimit="10" stroke-linejoin="round"/>
<path d="M26.0869 36.8695H38.0434" stroke="white" stroke-width="2" stroke-miterlimit="10" stroke-linejoin="round"/>
</svg>
