<svg width="61" height="61" viewBox="0 0 61 61" fill="none" xmlns="http://www.w3.org/2000/svg">
<path d="M22.2143 58.82C9.95258 55.2415 1 43.9161 1 30.5C1 14.2109 14.2109 1 30.5 1" stroke="white" stroke-width="2" stroke-miterlimit="10" stroke-linejoin="round"/>
<path d="M38.7857 2.17993C51.0474 5.75841 60 17.0838 60 30.4999C60 46.7891 46.7891 59.9999 30.5 59.9999" stroke="white" stroke-width="2" stroke-miterlimit="10" stroke-linejoin="round"/>
<path d="M18.9566 52.3044L22.8044 60.0001H13.8262" stroke="white" stroke-width="2" stroke-miterlimit="10" stroke-linejoin="round"/>
<path d="M42.0434 8.69565L38.1956 1H47.1738" stroke="white" stroke-width="2" stroke-miterlimit="10" stroke-linejoin="round"/>
<path d="M30.5 51.0215C41.8339 51.0215 51.0218 41.8336 51.0218 30.4998C51.0218 19.1659 41.8339 9.97803 30.5 9.97803C19.1662 9.97803 9.97827 19.1659 9.97827 30.4998C9.97827 41.8336 19.1662 51.0215 30.5 51.0215Z" stroke="white" stroke-width="2" stroke-miterlimit="10" stroke-linejoin="round"/>
<path d="M30.5001 51.0215C36.1671 51.0215 40.761 41.8336 40.761 30.4998C40.761 19.1659 36.1671 9.97803 30.5001 9.97803C24.8332 9.97803 20.2393 19.1659 20.2393 30.4998C20.2393 41.8336 24.8332 51.0215 30.5001 51.0215Z" stroke="white" stroke-width="2" stroke-miterlimit="10" stroke-linejoin="round"/>
<path d="M9.97827 30.5004H51.0218" stroke="white" stroke-width="2" stroke-miterlimit="10" stroke-linejoin="round"/>
<path d="M11.9021 21.5216H49.0978" stroke="white" stroke-width="2" stroke-miterlimit="10" stroke-linejoin="round"/>
<path d="M11.9021 39.4784H49.0978" stroke="white" stroke-width="2" stroke-miterlimit="10" stroke-linejoin="round"/>
<path d="M30.5 9.97803V51.0215" stroke="white" stroke-width="2" stroke-miterlimit="10" stroke-linejoin="round"/>
</svg>
